<mxfile host="www.draw.io" modified="2020-02-06T02:39:39.451Z" agent="Mozilla/5.0 (Windows NT 10.0; Win64; x64) AppleWebKit/537.36 (KHTML, like Gecko) Chrome/79.0.3945.130 Safari/537.36" etag="h9o3te0yXcoFp33FIrdt" version="12.6.5" type="github">
  <diagram id="ws6lZEbR3iSWEsv3Xen0" name="第 1 页">
    <mxGraphModel dx="1848" dy="1738" grid="1" gridSize="10" guides="1" tooltips="1" connect="1" arrows="1" fold="1" page="1" pageScale="1" pageWidth="827" pageHeight="1169" math="0" shadow="0">
      <root>
        <mxCell id="0"/>
        <mxCell id="1" parent="0"/>
        <mxCell id="O1Zh5Ntyxq8UXQbU3Ag8-3" value="page(页面配置表)" style="swimlane;fontStyle=0;childLayout=stackLayout;horizontal=1;startSize=26;fillColor=#e0e0e0;horizontalStack=0;resizeParent=1;resizeParentMax=0;resizeLast=0;collapsible=1;marginBottom=0;swimlaneFillColor=#ffffff;align=center;fontSize=14;" parent="1" vertex="1">
          <mxGeometry x="120" y="170" width="160" height="190" as="geometry"/>
        </mxCell>
        <mxCell id="O1Zh5Ntyxq8UXQbU3Ag8-4" value="id" style="shape=partialRectangle;top=0;left=0;right=0;bottom=1;align=left;verticalAlign=middle;fillColor=none;spacingLeft=34;spacingRight=4;overflow=hidden;rotatable=0;points=[[0,0.5],[1,0.5]];portConstraint=eastwest;dropTarget=0;fontStyle=5;fontSize=12;" parent="O1Zh5Ntyxq8UXQbU3Ag8-3" vertex="1">
          <mxGeometry y="26" width="160" height="60" as="geometry"/>
        </mxCell>
        <mxCell id="O1Zh5Ntyxq8UXQbU3Ag8-5" value="PK" style="shape=partialRectangle;top=0;left=0;bottom=0;fillColor=none;align=left;verticalAlign=middle;spacingLeft=4;spacingRight=4;overflow=hidden;rotatable=0;points=[];portConstraint=eastwest;part=1;fontSize=12;" parent="O1Zh5Ntyxq8UXQbU3Ag8-4" vertex="1" connectable="0">
          <mxGeometry width="30" height="60" as="geometry"/>
        </mxCell>
        <mxCell id="O1Zh5Ntyxq8UXQbU3Ag8-6" value="code" style="shape=partialRectangle;top=0;left=0;right=0;bottom=0;align=left;verticalAlign=top;fillColor=none;spacingLeft=34;spacingRight=4;overflow=hidden;rotatable=0;points=[[0,0.5],[1,0.5]];portConstraint=eastwest;dropTarget=0;fontSize=12;" parent="O1Zh5Ntyxq8UXQbU3Ag8-3" vertex="1">
          <mxGeometry y="86" width="160" height="26" as="geometry"/>
        </mxCell>
        <mxCell id="O1Zh5Ntyxq8UXQbU3Ag8-7" value="" style="shape=partialRectangle;top=0;left=0;bottom=0;fillColor=none;align=left;verticalAlign=top;spacingLeft=4;spacingRight=4;overflow=hidden;rotatable=0;points=[];portConstraint=eastwest;part=1;fontSize=12;" parent="O1Zh5Ntyxq8UXQbU3Ag8-6" vertex="1" connectable="0">
          <mxGeometry width="30" height="26" as="geometry"/>
        </mxCell>
        <mxCell id="O1Zh5Ntyxq8UXQbU3Ag8-8" value="name" style="shape=partialRectangle;top=0;left=0;right=0;bottom=0;align=left;verticalAlign=top;fillColor=none;spacingLeft=34;spacingRight=4;overflow=hidden;rotatable=0;points=[[0,0.5],[1,0.5]];portConstraint=eastwest;dropTarget=0;fontSize=12;" parent="O1Zh5Ntyxq8UXQbU3Ag8-3" vertex="1">
          <mxGeometry y="112" width="160" height="26" as="geometry"/>
        </mxCell>
        <mxCell id="O1Zh5Ntyxq8UXQbU3Ag8-9" value="" style="shape=partialRectangle;top=0;left=0;bottom=0;fillColor=none;align=left;verticalAlign=top;spacingLeft=4;spacingRight=4;overflow=hidden;rotatable=0;points=[];portConstraint=eastwest;part=1;fontSize=12;" parent="O1Zh5Ntyxq8UXQbU3Ag8-8" vertex="1" connectable="0">
          <mxGeometry width="30" height="26" as="geometry"/>
        </mxCell>
        <mxCell id="O1Zh5Ntyxq8UXQbU3Ag8-10" value="table_name" style="shape=partialRectangle;top=0;left=0;right=0;bottom=0;align=left;verticalAlign=top;fillColor=none;spacingLeft=34;spacingRight=4;overflow=hidden;rotatable=0;points=[[0,0.5],[1,0.5]];portConstraint=eastwest;dropTarget=0;fontSize=12;" parent="O1Zh5Ntyxq8UXQbU3Ag8-3" vertex="1">
          <mxGeometry y="138" width="160" height="26" as="geometry"/>
        </mxCell>
        <mxCell id="O1Zh5Ntyxq8UXQbU3Ag8-11" value="" style="shape=partialRectangle;top=0;left=0;bottom=0;fillColor=none;align=left;verticalAlign=top;spacingLeft=4;spacingRight=4;overflow=hidden;rotatable=0;points=[];portConstraint=eastwest;part=1;fontSize=12;" parent="O1Zh5Ntyxq8UXQbU3Ag8-10" vertex="1" connectable="0">
          <mxGeometry width="30" height="26" as="geometry"/>
        </mxCell>
        <mxCell id="QCWBeS-BqgH0feekaY_x-1" value="status" style="shape=partialRectangle;top=0;left=0;right=0;bottom=0;align=left;verticalAlign=top;fillColor=none;spacingLeft=34;spacingRight=4;overflow=hidden;rotatable=0;points=[[0,0.5],[1,0.5]];portConstraint=eastwest;dropTarget=0;fontSize=12;" vertex="1" parent="O1Zh5Ntyxq8UXQbU3Ag8-3">
          <mxGeometry y="164" width="160" height="26" as="geometry"/>
        </mxCell>
        <mxCell id="QCWBeS-BqgH0feekaY_x-2" value="" style="shape=partialRectangle;top=0;left=0;bottom=0;fillColor=none;align=left;verticalAlign=top;spacingLeft=4;spacingRight=4;overflow=hidden;rotatable=0;points=[];portConstraint=eastwest;part=1;fontSize=12;" vertex="1" connectable="0" parent="QCWBeS-BqgH0feekaY_x-1">
          <mxGeometry width="30" height="26" as="geometry"/>
        </mxCell>
        <mxCell id="O1Zh5Ntyxq8UXQbU3Ag8-12" value="" style="shape=partialRectangle;top=0;left=0;right=0;bottom=0;align=left;verticalAlign=top;fillColor=none;spacingLeft=34;spacingRight=4;overflow=hidden;rotatable=0;points=[[0,0.5],[1,0.5]];portConstraint=eastwest;dropTarget=0;fontSize=12;" parent="O1Zh5Ntyxq8UXQbU3Ag8-3" vertex="1">
          <mxGeometry y="190" width="160" as="geometry"/>
        </mxCell>
        <mxCell id="O1Zh5Ntyxq8UXQbU3Ag8-13" value="" style="shape=partialRectangle;top=0;left=0;bottom=0;fillColor=none;align=left;verticalAlign=top;spacingLeft=4;spacingRight=4;overflow=hidden;rotatable=0;points=[];portConstraint=eastwest;part=1;fontSize=12;" parent="O1Zh5Ntyxq8UXQbU3Ag8-12" vertex="1" connectable="0">
          <mxGeometry width="30" as="geometry"/>
        </mxCell>
        <mxCell id="O1Zh5Ntyxq8UXQbU3Ag8-14" value="下拉框配置表" style="swimlane;fontStyle=0;childLayout=stackLayout;horizontal=1;startSize=26;fillColor=#e0e0e0;horizontalStack=0;resizeParent=1;resizeParentMax=0;resizeLast=0;collapsible=1;marginBottom=0;swimlaneFillColor=#ffffff;align=center;fontSize=14;" parent="1" vertex="1">
          <mxGeometry x="380" y="260" width="160" height="240" as="geometry"/>
        </mxCell>
        <mxCell id="O1Zh5Ntyxq8UXQbU3Ag8-15" value="id" style="shape=partialRectangle;top=0;left=0;right=0;bottom=1;align=left;verticalAlign=middle;fillColor=none;spacingLeft=34;spacingRight=4;overflow=hidden;rotatable=0;points=[[0,0.5],[1,0.5]];portConstraint=eastwest;dropTarget=0;fontStyle=5;fontSize=12;" parent="O1Zh5Ntyxq8UXQbU3Ag8-14" vertex="1">
          <mxGeometry y="26" width="160" height="30" as="geometry"/>
        </mxCell>
        <mxCell id="O1Zh5Ntyxq8UXQbU3Ag8-16" value="PK" style="shape=partialRectangle;top=0;left=0;bottom=0;fillColor=none;align=left;verticalAlign=middle;spacingLeft=4;spacingRight=4;overflow=hidden;rotatable=0;points=[];portConstraint=eastwest;part=1;fontSize=12;" parent="O1Zh5Ntyxq8UXQbU3Ag8-15" vertex="1" connectable="0">
          <mxGeometry width="30" height="30" as="geometry"/>
        </mxCell>
        <mxCell id="O1Zh5Ntyxq8UXQbU3Ag8-17" value="code" style="shape=partialRectangle;top=0;left=0;right=0;bottom=0;align=left;verticalAlign=top;fillColor=none;spacingLeft=34;spacingRight=4;overflow=hidden;rotatable=0;points=[[0,0.5],[1,0.5]];portConstraint=eastwest;dropTarget=0;fontSize=12;" parent="O1Zh5Ntyxq8UXQbU3Ag8-14" vertex="1">
          <mxGeometry y="56" width="160" height="26" as="geometry"/>
        </mxCell>
        <mxCell id="O1Zh5Ntyxq8UXQbU3Ag8-18" value="" style="shape=partialRectangle;top=0;left=0;bottom=0;fillColor=none;align=left;verticalAlign=top;spacingLeft=4;spacingRight=4;overflow=hidden;rotatable=0;points=[];portConstraint=eastwest;part=1;fontSize=12;" parent="O1Zh5Ntyxq8UXQbU3Ag8-17" vertex="1" connectable="0">
          <mxGeometry width="30" height="26" as="geometry"/>
        </mxCell>
        <mxCell id="QCWBeS-BqgH0feekaY_x-41" value="type" style="shape=partialRectangle;top=0;left=0;right=0;bottom=0;align=left;verticalAlign=top;fillColor=none;spacingLeft=34;spacingRight=4;overflow=hidden;rotatable=0;points=[[0,0.5],[1,0.5]];portConstraint=eastwest;dropTarget=0;fontSize=12;" vertex="1" parent="O1Zh5Ntyxq8UXQbU3Ag8-14">
          <mxGeometry y="82" width="160" height="26" as="geometry"/>
        </mxCell>
        <mxCell id="QCWBeS-BqgH0feekaY_x-42" value="" style="shape=partialRectangle;top=0;left=0;bottom=0;fillColor=none;align=left;verticalAlign=top;spacingLeft=4;spacingRight=4;overflow=hidden;rotatable=0;points=[];portConstraint=eastwest;part=1;fontSize=12;" vertex="1" connectable="0" parent="QCWBeS-BqgH0feekaY_x-41">
          <mxGeometry width="30" height="26" as="geometry"/>
        </mxCell>
        <mxCell id="O1Zh5Ntyxq8UXQbU3Ag8-19" value="name&#xa;" style="shape=partialRectangle;top=0;left=0;right=0;bottom=0;align=left;verticalAlign=top;fillColor=none;spacingLeft=34;spacingRight=4;overflow=hidden;rotatable=0;points=[[0,0.5],[1,0.5]];portConstraint=eastwest;dropTarget=0;fontSize=12;" parent="O1Zh5Ntyxq8UXQbU3Ag8-14" vertex="1">
          <mxGeometry y="108" width="160" height="26" as="geometry"/>
        </mxCell>
        <mxCell id="O1Zh5Ntyxq8UXQbU3Ag8-20" value="" style="shape=partialRectangle;top=0;left=0;bottom=0;fillColor=none;align=left;verticalAlign=top;spacingLeft=4;spacingRight=4;overflow=hidden;rotatable=0;points=[];portConstraint=eastwest;part=1;fontSize=12;" parent="O1Zh5Ntyxq8UXQbU3Ag8-19" vertex="1" connectable="0">
          <mxGeometry width="30" height="26" as="geometry"/>
        </mxCell>
        <mxCell id="O1Zh5Ntyxq8UXQbU3Ag8-21" value="desc" style="shape=partialRectangle;top=0;left=0;right=0;bottom=0;align=left;verticalAlign=top;fillColor=none;spacingLeft=34;spacingRight=4;overflow=hidden;rotatable=0;points=[[0,0.5],[1,0.5]];portConstraint=eastwest;dropTarget=0;fontSize=12;" parent="O1Zh5Ntyxq8UXQbU3Ag8-14" vertex="1">
          <mxGeometry y="134" width="160" height="26" as="geometry"/>
        </mxCell>
        <mxCell id="O1Zh5Ntyxq8UXQbU3Ag8-22" value="" style="shape=partialRectangle;top=0;left=0;bottom=0;fillColor=none;align=left;verticalAlign=top;spacingLeft=4;spacingRight=4;overflow=hidden;rotatable=0;points=[];portConstraint=eastwest;part=1;fontSize=12;" parent="O1Zh5Ntyxq8UXQbU3Ag8-21" vertex="1" connectable="0">
          <mxGeometry width="30" height="26" as="geometry"/>
        </mxCell>
        <mxCell id="O1Zh5Ntyxq8UXQbU3Ag8-64" value="page_id" style="shape=partialRectangle;top=0;left=0;right=0;bottom=0;align=left;verticalAlign=top;fillColor=none;spacingLeft=34;spacingRight=4;overflow=hidden;rotatable=0;points=[[0,0.5],[1,0.5]];portConstraint=eastwest;dropTarget=0;fontSize=12;" parent="O1Zh5Ntyxq8UXQbU3Ag8-14" vertex="1">
          <mxGeometry y="160" width="160" height="26" as="geometry"/>
        </mxCell>
        <mxCell id="O1Zh5Ntyxq8UXQbU3Ag8-65" value="" style="shape=partialRectangle;top=0;left=0;bottom=0;fillColor=none;align=left;verticalAlign=top;spacingLeft=4;spacingRight=4;overflow=hidden;rotatable=0;points=[];portConstraint=eastwest;part=1;fontSize=12;" parent="O1Zh5Ntyxq8UXQbU3Ag8-64" vertex="1" connectable="0">
          <mxGeometry width="30" height="26" as="geometry"/>
        </mxCell>
        <mxCell id="O1Zh5Ntyxq8UXQbU3Ag8-66" value="desc" style="shape=partialRectangle;top=0;left=0;right=0;bottom=0;align=left;verticalAlign=top;fillColor=none;spacingLeft=34;spacingRight=4;overflow=hidden;rotatable=0;points=[[0,0.5],[1,0.5]];portConstraint=eastwest;dropTarget=0;fontSize=12;" parent="O1Zh5Ntyxq8UXQbU3Ag8-14" vertex="1">
          <mxGeometry y="186" width="160" height="26" as="geometry"/>
        </mxCell>
        <mxCell id="O1Zh5Ntyxq8UXQbU3Ag8-67" value="" style="shape=partialRectangle;top=0;left=0;bottom=0;fillColor=none;align=left;verticalAlign=top;spacingLeft=4;spacingRight=4;overflow=hidden;rotatable=0;points=[];portConstraint=eastwest;part=1;fontSize=12;" parent="O1Zh5Ntyxq8UXQbU3Ag8-66" vertex="1" connectable="0">
          <mxGeometry width="30" height="26" as="geometry"/>
        </mxCell>
        <mxCell id="O1Zh5Ntyxq8UXQbU3Ag8-69" value="key_value" style="shape=partialRectangle;top=0;left=0;right=0;bottom=0;align=left;verticalAlign=top;fillColor=none;spacingLeft=34;spacingRight=4;overflow=hidden;rotatable=0;points=[[0,0.5],[1,0.5]];portConstraint=eastwest;dropTarget=0;fontSize=12;" parent="O1Zh5Ntyxq8UXQbU3Ag8-14" vertex="1">
          <mxGeometry y="212" width="160" height="26" as="geometry"/>
        </mxCell>
        <mxCell id="O1Zh5Ntyxq8UXQbU3Ag8-70" value="" style="shape=partialRectangle;top=0;left=0;bottom=0;fillColor=none;align=left;verticalAlign=top;spacingLeft=4;spacingRight=4;overflow=hidden;rotatable=0;points=[];portConstraint=eastwest;part=1;fontSize=12;" parent="O1Zh5Ntyxq8UXQbU3Ag8-69" vertex="1" connectable="0">
          <mxGeometry width="30" height="26" as="geometry"/>
        </mxCell>
        <mxCell id="O1Zh5Ntyxq8UXQbU3Ag8-23" value="" style="shape=partialRectangle;top=0;left=0;right=0;bottom=0;align=left;verticalAlign=top;fillColor=none;spacingLeft=34;spacingRight=4;overflow=hidden;rotatable=0;points=[[0,0.5],[1,0.5]];portConstraint=eastwest;dropTarget=0;fontSize=12;" parent="O1Zh5Ntyxq8UXQbU3Ag8-14" vertex="1">
          <mxGeometry y="238" width="160" height="2" as="geometry"/>
        </mxCell>
        <mxCell id="O1Zh5Ntyxq8UXQbU3Ag8-24" value="" style="shape=partialRectangle;top=0;left=0;bottom=0;fillColor=none;align=left;verticalAlign=top;spacingLeft=4;spacingRight=4;overflow=hidden;rotatable=0;points=[];portConstraint=eastwest;part=1;fontSize=12;" parent="O1Zh5Ntyxq8UXQbU3Ag8-23" vertex="1" connectable="0">
          <mxGeometry width="30" height="2" as="geometry"/>
        </mxCell>
        <mxCell id="O1Zh5Ntyxq8UXQbU3Ag8-25" value="查询配置表" style="swimlane;fontStyle=0;childLayout=stackLayout;horizontal=1;startSize=26;fillColor=#e0e0e0;horizontalStack=0;resizeParent=1;resizeParentMax=0;resizeLast=0;collapsible=1;marginBottom=0;swimlaneFillColor=#ffffff;align=center;fontSize=14;" parent="1" vertex="1">
          <mxGeometry x="-160.94000000000005" y="-170" width="160" height="212" as="geometry"/>
        </mxCell>
        <mxCell id="O1Zh5Ntyxq8UXQbU3Ag8-26" value="id" style="shape=partialRectangle;top=0;left=0;right=0;bottom=1;align=left;verticalAlign=middle;fillColor=none;spacingLeft=34;spacingRight=4;overflow=hidden;rotatable=0;points=[[0,0.5],[1,0.5]];portConstraint=eastwest;dropTarget=0;fontStyle=5;fontSize=12;" parent="O1Zh5Ntyxq8UXQbU3Ag8-25" vertex="1">
          <mxGeometry y="26" width="160" height="30" as="geometry"/>
        </mxCell>
        <mxCell id="O1Zh5Ntyxq8UXQbU3Ag8-27" value="PK" style="shape=partialRectangle;top=0;left=0;bottom=0;fillColor=none;align=left;verticalAlign=middle;spacingLeft=4;spacingRight=4;overflow=hidden;rotatable=0;points=[];portConstraint=eastwest;part=1;fontSize=12;" parent="O1Zh5Ntyxq8UXQbU3Ag8-26" vertex="1" connectable="0">
          <mxGeometry width="30" height="30" as="geometry"/>
        </mxCell>
        <mxCell id="O1Zh5Ntyxq8UXQbU3Ag8-28" value="pag_id" style="shape=partialRectangle;top=0;left=0;right=0;bottom=0;align=left;verticalAlign=top;fillColor=none;spacingLeft=34;spacingRight=4;overflow=hidden;rotatable=0;points=[[0,0.5],[1,0.5]];portConstraint=eastwest;dropTarget=0;fontSize=12;" parent="O1Zh5Ntyxq8UXQbU3Ag8-25" vertex="1">
          <mxGeometry y="56" width="160" height="26" as="geometry"/>
        </mxCell>
        <mxCell id="O1Zh5Ntyxq8UXQbU3Ag8-29" value="" style="shape=partialRectangle;top=0;left=0;bottom=0;fillColor=none;align=left;verticalAlign=top;spacingLeft=4;spacingRight=4;overflow=hidden;rotatable=0;points=[];portConstraint=eastwest;part=1;fontSize=12;" parent="O1Zh5Ntyxq8UXQbU3Ag8-28" vertex="1" connectable="0">
          <mxGeometry width="30" height="26" as="geometry"/>
        </mxCell>
        <mxCell id="O1Zh5Ntyxq8UXQbU3Ag8-72" value="tree" style="shape=partialRectangle;top=0;left=0;right=0;bottom=0;align=left;verticalAlign=top;fillColor=none;spacingLeft=34;spacingRight=4;overflow=hidden;rotatable=0;points=[[0,0.5],[1,0.5]];portConstraint=eastwest;dropTarget=0;fontSize=12;" parent="O1Zh5Ntyxq8UXQbU3Ag8-25" vertex="1">
          <mxGeometry y="82" width="160" height="26" as="geometry"/>
        </mxCell>
        <mxCell id="O1Zh5Ntyxq8UXQbU3Ag8-73" value="" style="shape=partialRectangle;top=0;left=0;bottom=0;fillColor=none;align=left;verticalAlign=top;spacingLeft=4;spacingRight=4;overflow=hidden;rotatable=0;points=[];portConstraint=eastwest;part=1;fontSize=12;" parent="O1Zh5Ntyxq8UXQbU3Ag8-72" vertex="1" connectable="0">
          <mxGeometry width="30" height="26" as="geometry"/>
        </mxCell>
        <mxCell id="O1Zh5Ntyxq8UXQbU3Ag8-74" value="check_box" style="shape=partialRectangle;top=0;left=0;right=0;bottom=0;align=left;verticalAlign=top;fillColor=none;spacingLeft=34;spacingRight=4;overflow=hidden;rotatable=0;points=[[0,0.5],[1,0.5]];portConstraint=eastwest;dropTarget=0;fontSize=12;" parent="O1Zh5Ntyxq8UXQbU3Ag8-25" vertex="1">
          <mxGeometry y="108" width="160" height="26" as="geometry"/>
        </mxCell>
        <mxCell id="O1Zh5Ntyxq8UXQbU3Ag8-75" value="" style="shape=partialRectangle;top=0;left=0;bottom=0;fillColor=none;align=left;verticalAlign=top;spacingLeft=4;spacingRight=4;overflow=hidden;rotatable=0;points=[];portConstraint=eastwest;part=1;fontSize=12;" parent="O1Zh5Ntyxq8UXQbU3Ag8-74" vertex="1" connectable="0">
          <mxGeometry width="30" height="26" as="geometry"/>
        </mxCell>
        <mxCell id="O1Zh5Ntyxq8UXQbU3Ag8-76" value="laypage" style="shape=partialRectangle;top=0;left=0;right=0;bottom=0;align=left;verticalAlign=top;fillColor=none;spacingLeft=34;spacingRight=4;overflow=hidden;rotatable=0;points=[[0,0.5],[1,0.5]];portConstraint=eastwest;dropTarget=0;fontSize=12;" parent="O1Zh5Ntyxq8UXQbU3Ag8-25" vertex="1">
          <mxGeometry y="134" width="160" height="26" as="geometry"/>
        </mxCell>
        <mxCell id="O1Zh5Ntyxq8UXQbU3Ag8-77" value="" style="shape=partialRectangle;top=0;left=0;bottom=0;fillColor=none;align=left;verticalAlign=top;spacingLeft=4;spacingRight=4;overflow=hidden;rotatable=0;points=[];portConstraint=eastwest;part=1;fontSize=12;" parent="O1Zh5Ntyxq8UXQbU3Ag8-76" vertex="1" connectable="0">
          <mxGeometry width="30" height="26" as="geometry"/>
        </mxCell>
        <mxCell id="O1Zh5Ntyxq8UXQbU3Ag8-78" value="global_action" style="shape=partialRectangle;top=0;left=0;right=0;bottom=0;align=left;verticalAlign=top;fillColor=none;spacingLeft=34;spacingRight=4;overflow=hidden;rotatable=0;points=[[0,0.5],[1,0.5]];portConstraint=eastwest;dropTarget=0;fontSize=12;" parent="O1Zh5Ntyxq8UXQbU3Ag8-25" vertex="1">
          <mxGeometry y="160" width="160" height="26" as="geometry"/>
        </mxCell>
        <mxCell id="O1Zh5Ntyxq8UXQbU3Ag8-79" value="" style="shape=partialRectangle;top=0;left=0;bottom=0;fillColor=none;align=left;verticalAlign=top;spacingLeft=4;spacingRight=4;overflow=hidden;rotatable=0;points=[];portConstraint=eastwest;part=1;fontSize=12;" parent="O1Zh5Ntyxq8UXQbU3Ag8-78" vertex="1" connectable="0">
          <mxGeometry width="30" height="26" as="geometry"/>
        </mxCell>
        <mxCell id="O1Zh5Ntyxq8UXQbU3Ag8-80" value="single_action" style="shape=partialRectangle;top=0;left=0;right=0;bottom=0;align=left;verticalAlign=top;fillColor=none;spacingLeft=34;spacingRight=4;overflow=hidden;rotatable=0;points=[[0,0.5],[1,0.5]];portConstraint=eastwest;dropTarget=0;fontSize=12;" parent="O1Zh5Ntyxq8UXQbU3Ag8-25" vertex="1">
          <mxGeometry y="186" width="160" height="26" as="geometry"/>
        </mxCell>
        <mxCell id="O1Zh5Ntyxq8UXQbU3Ag8-81" value="" style="shape=partialRectangle;top=0;left=0;bottom=0;fillColor=none;align=left;verticalAlign=top;spacingLeft=4;spacingRight=4;overflow=hidden;rotatable=0;points=[];portConstraint=eastwest;part=1;fontSize=12;" parent="O1Zh5Ntyxq8UXQbU3Ag8-80" vertex="1" connectable="0">
          <mxGeometry width="30" height="26" as="geometry"/>
        </mxCell>
        <mxCell id="O1Zh5Ntyxq8UXQbU3Ag8-36" value="新增配置表" style="swimlane;fontStyle=0;childLayout=stackLayout;horizontal=1;startSize=26;fillColor=#e0e0e0;horizontalStack=0;resizeParent=1;resizeParentMax=0;resizeLast=0;collapsible=1;marginBottom=0;swimlaneFillColor=#ffffff;align=center;fontSize=14;" parent="1" vertex="1">
          <mxGeometry x="-150" y="90" width="160" height="120" as="geometry"/>
        </mxCell>
        <mxCell id="O1Zh5Ntyxq8UXQbU3Ag8-37" value="id" style="shape=partialRectangle;top=0;left=0;right=0;bottom=1;align=left;verticalAlign=middle;fillColor=none;spacingLeft=34;spacingRight=4;overflow=hidden;rotatable=0;points=[[0,0.5],[1,0.5]];portConstraint=eastwest;dropTarget=0;fontStyle=5;fontSize=12;" parent="O1Zh5Ntyxq8UXQbU3Ag8-36" vertex="1">
          <mxGeometry y="26" width="160" height="30" as="geometry"/>
        </mxCell>
        <mxCell id="O1Zh5Ntyxq8UXQbU3Ag8-38" value="PK" style="shape=partialRectangle;top=0;left=0;bottom=0;fillColor=none;align=left;verticalAlign=middle;spacingLeft=4;spacingRight=4;overflow=hidden;rotatable=0;points=[];portConstraint=eastwest;part=1;fontSize=12;" parent="O1Zh5Ntyxq8UXQbU3Ag8-37" vertex="1" connectable="0">
          <mxGeometry width="30" height="30" as="geometry"/>
        </mxCell>
        <mxCell id="O1Zh5Ntyxq8UXQbU3Ag8-39" value="page_id" style="shape=partialRectangle;top=0;left=0;right=0;bottom=0;align=left;verticalAlign=top;fillColor=none;spacingLeft=34;spacingRight=4;overflow=hidden;rotatable=0;points=[[0,0.5],[1,0.5]];portConstraint=eastwest;dropTarget=0;fontSize=12;" parent="O1Zh5Ntyxq8UXQbU3Ag8-36" vertex="1">
          <mxGeometry y="56" width="160" height="26" as="geometry"/>
        </mxCell>
        <mxCell id="O1Zh5Ntyxq8UXQbU3Ag8-40" value="" style="shape=partialRectangle;top=0;left=0;bottom=0;fillColor=none;align=left;verticalAlign=top;spacingLeft=4;spacingRight=4;overflow=hidden;rotatable=0;points=[];portConstraint=eastwest;part=1;fontSize=12;" parent="O1Zh5Ntyxq8UXQbU3Ag8-39" vertex="1" connectable="0">
          <mxGeometry width="30" height="26" as="geometry"/>
        </mxCell>
        <mxCell id="O1Zh5Ntyxq8UXQbU3Ag8-41" value="show_form" style="shape=partialRectangle;top=0;left=0;right=0;bottom=0;align=left;verticalAlign=top;fillColor=none;spacingLeft=34;spacingRight=4;overflow=hidden;rotatable=0;points=[[0,0.5],[1,0.5]];portConstraint=eastwest;dropTarget=0;fontSize=12;" parent="O1Zh5Ntyxq8UXQbU3Ag8-36" vertex="1">
          <mxGeometry y="82" width="160" height="28" as="geometry"/>
        </mxCell>
        <mxCell id="O1Zh5Ntyxq8UXQbU3Ag8-42" value="" style="shape=partialRectangle;top=0;left=0;bottom=0;fillColor=none;align=left;verticalAlign=top;spacingLeft=4;spacingRight=4;overflow=hidden;rotatable=0;points=[];portConstraint=eastwest;part=1;fontSize=12;" parent="O1Zh5Ntyxq8UXQbU3Ag8-41" vertex="1" connectable="0">
          <mxGeometry width="30" height="28" as="geometry"/>
        </mxCell>
        <mxCell id="O1Zh5Ntyxq8UXQbU3Ag8-45" value="" style="shape=partialRectangle;top=0;left=0;right=0;bottom=0;align=left;verticalAlign=top;fillColor=none;spacingLeft=34;spacingRight=4;overflow=hidden;rotatable=0;points=[[0,0.5],[1,0.5]];portConstraint=eastwest;dropTarget=0;fontSize=12;" parent="O1Zh5Ntyxq8UXQbU3Ag8-36" vertex="1">
          <mxGeometry y="110" width="160" height="10" as="geometry"/>
        </mxCell>
        <mxCell id="O1Zh5Ntyxq8UXQbU3Ag8-46" value="" style="shape=partialRectangle;top=0;left=0;bottom=0;fillColor=none;align=left;verticalAlign=top;spacingLeft=4;spacingRight=4;overflow=hidden;rotatable=0;points=[];portConstraint=eastwest;part=1;fontSize=12;" parent="O1Zh5Ntyxq8UXQbU3Ag8-45" vertex="1" connectable="0">
          <mxGeometry width="30" height="10" as="geometry"/>
        </mxCell>
        <mxCell id="O1Zh5Ntyxq8UXQbU3Ag8-47" value="修改配置表" style="swimlane;fontStyle=0;childLayout=stackLayout;horizontal=1;startSize=26;fillColor=#e0e0e0;horizontalStack=0;resizeParent=1;resizeParentMax=0;resizeLast=0;collapsible=1;marginBottom=0;swimlaneFillColor=#ffffff;align=center;fontSize=14;" parent="1" vertex="1">
          <mxGeometry x="-150" y="300" width="160" height="118" as="geometry"/>
        </mxCell>
        <mxCell id="O1Zh5Ntyxq8UXQbU3Ag8-48" value="id" style="shape=partialRectangle;top=0;left=0;right=0;bottom=1;align=left;verticalAlign=middle;fillColor=none;spacingLeft=34;spacingRight=4;overflow=hidden;rotatable=0;points=[[0,0.5],[1,0.5]];portConstraint=eastwest;dropTarget=0;fontStyle=5;fontSize=12;" parent="O1Zh5Ntyxq8UXQbU3Ag8-47" vertex="1">
          <mxGeometry y="26" width="160" height="30" as="geometry"/>
        </mxCell>
        <mxCell id="O1Zh5Ntyxq8UXQbU3Ag8-49" value="PK" style="shape=partialRectangle;top=0;left=0;bottom=0;fillColor=none;align=left;verticalAlign=middle;spacingLeft=4;spacingRight=4;overflow=hidden;rotatable=0;points=[];portConstraint=eastwest;part=1;fontSize=12;" parent="O1Zh5Ntyxq8UXQbU3Ag8-48" vertex="1" connectable="0">
          <mxGeometry width="30" height="30" as="geometry"/>
        </mxCell>
        <mxCell id="O1Zh5Ntyxq8UXQbU3Ag8-50" value="page_id" style="shape=partialRectangle;top=0;left=0;right=0;bottom=0;align=left;verticalAlign=top;fillColor=none;spacingLeft=34;spacingRight=4;overflow=hidden;rotatable=0;points=[[0,0.5],[1,0.5]];portConstraint=eastwest;dropTarget=0;fontSize=12;" parent="O1Zh5Ntyxq8UXQbU3Ag8-47" vertex="1">
          <mxGeometry y="56" width="160" height="26" as="geometry"/>
        </mxCell>
        <mxCell id="O1Zh5Ntyxq8UXQbU3Ag8-51" value="" style="shape=partialRectangle;top=0;left=0;bottom=0;fillColor=none;align=left;verticalAlign=top;spacingLeft=4;spacingRight=4;overflow=hidden;rotatable=0;points=[];portConstraint=eastwest;part=1;fontSize=12;" parent="O1Zh5Ntyxq8UXQbU3Ag8-50" vertex="1" connectable="0">
          <mxGeometry width="30" height="26" as="geometry"/>
        </mxCell>
        <mxCell id="O1Zh5Ntyxq8UXQbU3Ag8-52" value="show_form" style="shape=partialRectangle;top=0;left=0;right=0;bottom=0;align=left;verticalAlign=top;fillColor=none;spacingLeft=34;spacingRight=4;overflow=hidden;rotatable=0;points=[[0,0.5],[1,0.5]];portConstraint=eastwest;dropTarget=0;fontSize=12;" parent="O1Zh5Ntyxq8UXQbU3Ag8-47" vertex="1">
          <mxGeometry y="82" width="160" height="26" as="geometry"/>
        </mxCell>
        <mxCell id="O1Zh5Ntyxq8UXQbU3Ag8-53" value="" style="shape=partialRectangle;top=0;left=0;bottom=0;fillColor=none;align=left;verticalAlign=top;spacingLeft=4;spacingRight=4;overflow=hidden;rotatable=0;points=[];portConstraint=eastwest;part=1;fontSize=12;" parent="O1Zh5Ntyxq8UXQbU3Ag8-52" vertex="1" connectable="0">
          <mxGeometry width="30" height="26" as="geometry"/>
        </mxCell>
        <mxCell id="O1Zh5Ntyxq8UXQbU3Ag8-56" value="" style="shape=partialRectangle;top=0;left=0;right=0;bottom=0;align=left;verticalAlign=top;fillColor=none;spacingLeft=34;spacingRight=4;overflow=hidden;rotatable=0;points=[[0,0.5],[1,0.5]];portConstraint=eastwest;dropTarget=0;fontSize=12;" parent="O1Zh5Ntyxq8UXQbU3Ag8-47" vertex="1">
          <mxGeometry y="108" width="160" height="10" as="geometry"/>
        </mxCell>
        <mxCell id="O1Zh5Ntyxq8UXQbU3Ag8-57" value="" style="shape=partialRectangle;top=0;left=0;bottom=0;fillColor=none;align=left;verticalAlign=top;spacingLeft=4;spacingRight=4;overflow=hidden;rotatable=0;points=[];portConstraint=eastwest;part=1;fontSize=12;" parent="O1Zh5Ntyxq8UXQbU3Ag8-56" vertex="1" connectable="0">
          <mxGeometry width="30" height="10" as="geometry"/>
        </mxCell>
        <mxCell id="O1Zh5Ntyxq8UXQbU3Ag8-68" value="" style="edgeStyle=entityRelationEdgeStyle;fontSize=12;html=1;endArrow=ERoneToMany;entryX=0;entryY=0.5;entryDx=0;entryDy=0;" parent="1" source="O1Zh5Ntyxq8UXQbU3Ag8-4" target="O1Zh5Ntyxq8UXQbU3Ag8-64" edge="1">
          <mxGeometry width="100" height="100" relative="1" as="geometry">
            <mxPoint x="280" y="311" as="sourcePoint"/>
            <mxPoint x="421.4213562373095" y="211" as="targetPoint"/>
          </mxGeometry>
        </mxCell>
        <mxCell id="O1Zh5Ntyxq8UXQbU3Ag8-89" value="" style="edgeStyle=entityRelationEdgeStyle;fontSize=12;html=1;endArrow=ERmandOne;startArrow=ERmandOne;exitX=1;exitY=0.5;exitDx=0;exitDy=0;entryX=0;entryY=0.5;entryDx=0;entryDy=0;" parent="1" source="O1Zh5Ntyxq8UXQbU3Ag8-39" target="O1Zh5Ntyxq8UXQbU3Ag8-4" edge="1">
          <mxGeometry width="100" height="100" relative="1" as="geometry">
            <mxPoint x="40" y="70" as="sourcePoint"/>
            <mxPoint x="140" y="-30" as="targetPoint"/>
          </mxGeometry>
        </mxCell>
        <mxCell id="O1Zh5Ntyxq8UXQbU3Ag8-90" value="" style="edgeStyle=entityRelationEdgeStyle;fontSize=12;html=1;endArrow=ERmandOne;startArrow=ERmandOne;exitX=1;exitY=0.5;exitDx=0;exitDy=0;" parent="1" source="O1Zh5Ntyxq8UXQbU3Ag8-50" edge="1">
          <mxGeometry width="100" height="100" relative="1" as="geometry">
            <mxPoint x="-10" y="120" as="sourcePoint"/>
            <mxPoint x="120" y="244" as="targetPoint"/>
          </mxGeometry>
        </mxCell>
        <mxCell id="O1Zh5Ntyxq8UXQbU3Ag8-91" value="字段描述表" style="swimlane;fontStyle=0;childLayout=stackLayout;horizontal=1;startSize=26;fillColor=#e0e0e0;horizontalStack=0;resizeParent=1;resizeParentMax=0;resizeLast=0;collapsible=1;marginBottom=0;swimlaneFillColor=#ffffff;align=center;fontSize=14;" parent="1" vertex="1">
          <mxGeometry x="-480" y="330" width="160" height="250" as="geometry"/>
        </mxCell>
        <mxCell id="O1Zh5Ntyxq8UXQbU3Ag8-92" value="id" style="shape=partialRectangle;top=0;left=0;right=0;bottom=1;align=left;verticalAlign=middle;fillColor=none;spacingLeft=34;spacingRight=4;overflow=hidden;rotatable=0;points=[[0,0.5],[1,0.5]];portConstraint=eastwest;dropTarget=0;fontStyle=5;fontSize=12;" parent="O1Zh5Ntyxq8UXQbU3Ag8-91" vertex="1">
          <mxGeometry y="26" width="160" height="60" as="geometry"/>
        </mxCell>
        <mxCell id="O1Zh5Ntyxq8UXQbU3Ag8-93" value="PK" style="shape=partialRectangle;top=0;left=0;bottom=0;fillColor=none;align=left;verticalAlign=middle;spacingLeft=4;spacingRight=4;overflow=hidden;rotatable=0;points=[];portConstraint=eastwest;part=1;fontSize=12;" parent="O1Zh5Ntyxq8UXQbU3Ag8-92" vertex="1" connectable="0">
          <mxGeometry width="30" height="60" as="geometry"/>
        </mxCell>
        <mxCell id="O1Zh5Ntyxq8UXQbU3Ag8-94" value="field_name" style="shape=partialRectangle;top=0;left=0;right=0;bottom=0;align=left;verticalAlign=top;fillColor=none;spacingLeft=34;spacingRight=4;overflow=hidden;rotatable=0;points=[[0,0.5],[1,0.5]];portConstraint=eastwest;dropTarget=0;fontSize=12;" parent="O1Zh5Ntyxq8UXQbU3Ag8-91" vertex="1">
          <mxGeometry y="86" width="160" height="26" as="geometry"/>
        </mxCell>
        <mxCell id="O1Zh5Ntyxq8UXQbU3Ag8-95" value="" style="shape=partialRectangle;top=0;left=0;bottom=0;fillColor=none;align=left;verticalAlign=top;spacingLeft=4;spacingRight=4;overflow=hidden;rotatable=0;points=[];portConstraint=eastwest;part=1;fontSize=12;" parent="O1Zh5Ntyxq8UXQbU3Ag8-94" vertex="1" connectable="0">
          <mxGeometry width="30" height="26" as="geometry"/>
        </mxCell>
        <mxCell id="O1Zh5Ntyxq8UXQbU3Ag8-96" value="show_name" style="shape=partialRectangle;top=0;left=0;right=0;bottom=0;align=left;verticalAlign=top;fillColor=none;spacingLeft=34;spacingRight=4;overflow=hidden;rotatable=0;points=[[0,0.5],[1,0.5]];portConstraint=eastwest;dropTarget=0;fontSize=12;" parent="O1Zh5Ntyxq8UXQbU3Ag8-91" vertex="1">
          <mxGeometry y="112" width="160" height="26" as="geometry"/>
        </mxCell>
        <mxCell id="O1Zh5Ntyxq8UXQbU3Ag8-97" value="" style="shape=partialRectangle;top=0;left=0;bottom=0;fillColor=none;align=left;verticalAlign=top;spacingLeft=4;spacingRight=4;overflow=hidden;rotatable=0;points=[];portConstraint=eastwest;part=1;fontSize=12;" parent="O1Zh5Ntyxq8UXQbU3Ag8-96" vertex="1" connectable="0">
          <mxGeometry width="30" height="26" as="geometry"/>
        </mxCell>
        <mxCell id="O1Zh5Ntyxq8UXQbU3Ag8-98" value="control_type" style="shape=partialRectangle;top=0;left=0;right=0;bottom=0;align=left;verticalAlign=top;fillColor=none;spacingLeft=34;spacingRight=4;overflow=hidden;rotatable=0;points=[[0,0.5],[1,0.5]];portConstraint=eastwest;dropTarget=0;fontSize=12;" parent="O1Zh5Ntyxq8UXQbU3Ag8-91" vertex="1">
          <mxGeometry y="138" width="160" height="26" as="geometry"/>
        </mxCell>
        <mxCell id="O1Zh5Ntyxq8UXQbU3Ag8-99" value="" style="shape=partialRectangle;top=0;left=0;bottom=0;fillColor=none;align=left;verticalAlign=top;spacingLeft=4;spacingRight=4;overflow=hidden;rotatable=0;points=[];portConstraint=eastwest;part=1;fontSize=12;" parent="O1Zh5Ntyxq8UXQbU3Ag8-98" vertex="1" connectable="0">
          <mxGeometry width="30" height="26" as="geometry"/>
        </mxCell>
        <mxCell id="O1Zh5Ntyxq8UXQbU3Ag8-102" value="format" style="shape=partialRectangle;top=0;left=0;right=0;bottom=0;align=left;verticalAlign=top;fillColor=none;spacingLeft=34;spacingRight=4;overflow=hidden;rotatable=0;points=[[0,0.5],[1,0.5]];portConstraint=eastwest;dropTarget=0;fontSize=12;" parent="O1Zh5Ntyxq8UXQbU3Ag8-91" vertex="1">
          <mxGeometry y="164" width="160" height="26" as="geometry"/>
        </mxCell>
        <mxCell id="O1Zh5Ntyxq8UXQbU3Ag8-103" value="" style="shape=partialRectangle;top=0;left=0;bottom=0;fillColor=none;align=left;verticalAlign=top;spacingLeft=4;spacingRight=4;overflow=hidden;rotatable=0;points=[];portConstraint=eastwest;part=1;fontSize=12;" parent="O1Zh5Ntyxq8UXQbU3Ag8-102" vertex="1" connectable="0">
          <mxGeometry width="30" height="26" as="geometry"/>
        </mxCell>
        <mxCell id="O1Zh5Ntyxq8UXQbU3Ag8-104" value="check_rule" style="shape=partialRectangle;top=0;left=0;right=0;bottom=0;align=left;verticalAlign=top;fillColor=none;spacingLeft=34;spacingRight=4;overflow=hidden;rotatable=0;points=[[0,0.5],[1,0.5]];portConstraint=eastwest;dropTarget=0;fontSize=12;" parent="O1Zh5Ntyxq8UXQbU3Ag8-91" vertex="1">
          <mxGeometry y="190" width="160" height="26" as="geometry"/>
        </mxCell>
        <mxCell id="O1Zh5Ntyxq8UXQbU3Ag8-105" value="" style="shape=partialRectangle;top=0;left=0;bottom=0;fillColor=none;align=left;verticalAlign=top;spacingLeft=4;spacingRight=4;overflow=hidden;rotatable=0;points=[];portConstraint=eastwest;part=1;fontSize=12;" parent="O1Zh5Ntyxq8UXQbU3Ag8-104" vertex="1" connectable="0">
          <mxGeometry width="30" height="26" as="geometry"/>
        </mxCell>
        <mxCell id="QCWBeS-BqgH0feekaY_x-39" value="default_value" style="shape=partialRectangle;top=0;left=0;right=0;bottom=0;align=left;verticalAlign=top;fillColor=none;spacingLeft=34;spacingRight=4;overflow=hidden;rotatable=0;points=[[0,0.5],[1,0.5]];portConstraint=eastwest;dropTarget=0;fontSize=12;" vertex="1" parent="O1Zh5Ntyxq8UXQbU3Ag8-91">
          <mxGeometry y="216" width="160" height="26" as="geometry"/>
        </mxCell>
        <mxCell id="QCWBeS-BqgH0feekaY_x-40" value="" style="shape=partialRectangle;top=0;left=0;bottom=0;fillColor=none;align=left;verticalAlign=top;spacingLeft=4;spacingRight=4;overflow=hidden;rotatable=0;points=[];portConstraint=eastwest;part=1;fontSize=12;" vertex="1" connectable="0" parent="QCWBeS-BqgH0feekaY_x-39">
          <mxGeometry width="30" height="26" as="geometry"/>
        </mxCell>
        <mxCell id="O1Zh5Ntyxq8UXQbU3Ag8-100" value="" style="shape=partialRectangle;top=0;left=0;right=0;bottom=0;align=left;verticalAlign=top;fillColor=none;spacingLeft=34;spacingRight=4;overflow=hidden;rotatable=0;points=[[0,0.5],[1,0.5]];portConstraint=eastwest;dropTarget=0;fontSize=12;" parent="O1Zh5Ntyxq8UXQbU3Ag8-91" vertex="1">
          <mxGeometry y="242" width="160" height="8" as="geometry"/>
        </mxCell>
        <mxCell id="O1Zh5Ntyxq8UXQbU3Ag8-101" value="" style="shape=partialRectangle;top=0;left=0;bottom=0;fillColor=none;align=left;verticalAlign=top;spacingLeft=4;spacingRight=4;overflow=hidden;rotatable=0;points=[];portConstraint=eastwest;part=1;fontSize=12;" parent="O1Zh5Ntyxq8UXQbU3Ag8-100" vertex="1" connectable="0">
          <mxGeometry width="30" height="8" as="geometry"/>
        </mxCell>
        <mxCell id="QCWBeS-BqgH0feekaY_x-3" value="字段样式表" style="swimlane;fontStyle=0;childLayout=stackLayout;horizontal=1;startSize=26;fillColor=#e0e0e0;horizontalStack=0;resizeParent=1;resizeParentMax=0;resizeLast=0;collapsible=1;marginBottom=0;swimlaneFillColor=#ffffff;align=center;fontSize=14;" vertex="1" parent="1">
          <mxGeometry x="110" y="550" width="160" height="302" as="geometry"/>
        </mxCell>
        <mxCell id="QCWBeS-BqgH0feekaY_x-4" value="id" style="shape=partialRectangle;top=0;left=0;right=0;bottom=1;align=left;verticalAlign=middle;fillColor=none;spacingLeft=34;spacingRight=4;overflow=hidden;rotatable=0;points=[[0,0.5],[1,0.5]];portConstraint=eastwest;dropTarget=0;fontStyle=5;fontSize=12;" vertex="1" parent="QCWBeS-BqgH0feekaY_x-3">
          <mxGeometry y="26" width="160" height="30" as="geometry"/>
        </mxCell>
        <mxCell id="QCWBeS-BqgH0feekaY_x-5" value="PK" style="shape=partialRectangle;top=0;left=0;bottom=0;fillColor=none;align=left;verticalAlign=middle;spacingLeft=4;spacingRight=4;overflow=hidden;rotatable=0;points=[];portConstraint=eastwest;part=1;fontSize=12;" vertex="1" connectable="0" parent="QCWBeS-BqgH0feekaY_x-4">
          <mxGeometry width="30" height="30" as="geometry"/>
        </mxCell>
        <mxCell id="QCWBeS-BqgH0feekaY_x-6" value="filed_id" style="shape=partialRectangle;top=0;left=0;right=0;bottom=0;align=left;verticalAlign=top;fillColor=none;spacingLeft=34;spacingRight=4;overflow=hidden;rotatable=0;points=[[0,0.5],[1,0.5]];portConstraint=eastwest;dropTarget=0;fontSize=12;" vertex="1" parent="QCWBeS-BqgH0feekaY_x-3">
          <mxGeometry y="56" width="160" height="26" as="geometry"/>
        </mxCell>
        <mxCell id="QCWBeS-BqgH0feekaY_x-7" value="" style="shape=partialRectangle;top=0;left=0;bottom=0;fillColor=none;align=left;verticalAlign=top;spacingLeft=4;spacingRight=4;overflow=hidden;rotatable=0;points=[];portConstraint=eastwest;part=1;fontSize=12;" vertex="1" connectable="0" parent="QCWBeS-BqgH0feekaY_x-6">
          <mxGeometry width="30" height="26" as="geometry"/>
        </mxCell>
        <mxCell id="QCWBeS-BqgH0feekaY_x-22" value="belong" style="shape=partialRectangle;top=0;left=0;right=0;bottom=0;align=left;verticalAlign=top;fillColor=none;spacingLeft=34;spacingRight=4;overflow=hidden;rotatable=0;points=[[0,0.5],[1,0.5]];portConstraint=eastwest;dropTarget=0;fontSize=12;" vertex="1" parent="QCWBeS-BqgH0feekaY_x-3">
          <mxGeometry y="82" width="160" height="26" as="geometry"/>
        </mxCell>
        <mxCell id="QCWBeS-BqgH0feekaY_x-23" value="" style="shape=partialRectangle;top=0;left=0;bottom=0;fillColor=none;align=left;verticalAlign=top;spacingLeft=4;spacingRight=4;overflow=hidden;rotatable=0;points=[];portConstraint=eastwest;part=1;fontSize=12;" vertex="1" connectable="0" parent="QCWBeS-BqgH0feekaY_x-22">
          <mxGeometry width="30" height="26" as="geometry"/>
        </mxCell>
        <mxCell id="QCWBeS-BqgH0feekaY_x-26" value="belong_id" style="shape=partialRectangle;top=0;left=0;right=0;bottom=0;align=left;verticalAlign=top;fillColor=none;spacingLeft=34;spacingRight=4;overflow=hidden;rotatable=0;points=[[0,0.5],[1,0.5]];portConstraint=eastwest;dropTarget=0;fontSize=12;" vertex="1" parent="QCWBeS-BqgH0feekaY_x-3">
          <mxGeometry y="108" width="160" height="60" as="geometry"/>
        </mxCell>
        <mxCell id="QCWBeS-BqgH0feekaY_x-27" value="" style="shape=partialRectangle;top=0;left=0;bottom=0;fillColor=none;align=left;verticalAlign=top;spacingLeft=4;spacingRight=4;overflow=hidden;rotatable=0;points=[];portConstraint=eastwest;part=1;fontSize=12;" vertex="1" connectable="0" parent="QCWBeS-BqgH0feekaY_x-26">
          <mxGeometry y="-34" width="30" height="94" as="geometry"/>
        </mxCell>
        <mxCell id="QCWBeS-BqgH0feekaY_x-20" value="show" style="shape=partialRectangle;top=0;left=0;right=0;bottom=0;align=left;verticalAlign=top;fillColor=none;spacingLeft=34;spacingRight=4;overflow=hidden;rotatable=0;points=[[0,0.5],[1,0.5]];portConstraint=eastwest;dropTarget=0;fontSize=12;" vertex="1" parent="QCWBeS-BqgH0feekaY_x-3">
          <mxGeometry y="168" width="160" height="26" as="geometry"/>
        </mxCell>
        <mxCell id="QCWBeS-BqgH0feekaY_x-21" value="" style="shape=partialRectangle;top=0;left=0;bottom=0;fillColor=none;align=left;verticalAlign=top;spacingLeft=4;spacingRight=4;overflow=hidden;rotatable=0;points=[];portConstraint=eastwest;part=1;fontSize=12;" vertex="1" connectable="0" parent="QCWBeS-BqgH0feekaY_x-20">
          <mxGeometry width="30" height="26" as="geometry"/>
        </mxCell>
        <mxCell id="QCWBeS-BqgH0feekaY_x-8" value="query" style="shape=partialRectangle;top=0;left=0;right=0;bottom=0;align=left;verticalAlign=top;fillColor=none;spacingLeft=34;spacingRight=4;overflow=hidden;rotatable=0;points=[[0,0.5],[1,0.5]];portConstraint=eastwest;dropTarget=0;fontSize=12;" vertex="1" parent="QCWBeS-BqgH0feekaY_x-3">
          <mxGeometry y="194" width="160" height="26" as="geometry"/>
        </mxCell>
        <mxCell id="QCWBeS-BqgH0feekaY_x-9" value="" style="shape=partialRectangle;top=0;left=0;bottom=0;fillColor=none;align=left;verticalAlign=top;spacingLeft=4;spacingRight=4;overflow=hidden;rotatable=0;points=[];portConstraint=eastwest;part=1;fontSize=12;" vertex="1" connectable="0" parent="QCWBeS-BqgH0feekaY_x-8">
          <mxGeometry width="30" height="26" as="geometry"/>
        </mxCell>
        <mxCell id="QCWBeS-BqgH0feekaY_x-10" value="edit" style="shape=partialRectangle;top=0;left=0;right=0;bottom=0;align=left;verticalAlign=top;fillColor=none;spacingLeft=34;spacingRight=4;overflow=hidden;rotatable=0;points=[[0,0.5],[1,0.5]];portConstraint=eastwest;dropTarget=0;fontSize=12;" vertex="1" parent="QCWBeS-BqgH0feekaY_x-3">
          <mxGeometry y="220" width="160" height="26" as="geometry"/>
        </mxCell>
        <mxCell id="QCWBeS-BqgH0feekaY_x-11" value="" style="shape=partialRectangle;top=0;left=0;bottom=0;fillColor=none;align=left;verticalAlign=top;spacingLeft=4;spacingRight=4;overflow=hidden;rotatable=0;points=[];portConstraint=eastwest;part=1;fontSize=12;" vertex="1" connectable="0" parent="QCWBeS-BqgH0feekaY_x-10">
          <mxGeometry width="30" height="26" as="geometry"/>
        </mxCell>
        <mxCell id="QCWBeS-BqgH0feekaY_x-14" value="arrange" style="shape=partialRectangle;top=0;left=0;right=0;bottom=0;align=left;verticalAlign=top;fillColor=none;spacingLeft=34;spacingRight=4;overflow=hidden;rotatable=0;points=[[0,0.5],[1,0.5]];portConstraint=eastwest;dropTarget=0;fontSize=12;" vertex="1" parent="QCWBeS-BqgH0feekaY_x-3">
          <mxGeometry y="246" width="160" height="30" as="geometry"/>
        </mxCell>
        <mxCell id="QCWBeS-BqgH0feekaY_x-15" value="" style="shape=partialRectangle;top=0;left=0;bottom=0;fillColor=none;align=left;verticalAlign=top;spacingLeft=4;spacingRight=4;overflow=hidden;rotatable=0;points=[];portConstraint=eastwest;part=1;fontSize=12;" vertex="1" connectable="0" parent="QCWBeS-BqgH0feekaY_x-14">
          <mxGeometry width="30" height="29.999999999999996" as="geometry"/>
        </mxCell>
        <mxCell id="QCWBeS-BqgH0feekaY_x-16" value="sort_order" style="shape=partialRectangle;top=0;left=0;right=0;bottom=0;align=left;verticalAlign=top;fillColor=none;spacingLeft=34;spacingRight=4;overflow=hidden;rotatable=0;points=[[0,0.5],[1,0.5]];portConstraint=eastwest;dropTarget=0;fontSize=12;" vertex="1" parent="QCWBeS-BqgH0feekaY_x-3">
          <mxGeometry y="276" width="160" height="26" as="geometry"/>
        </mxCell>
        <mxCell id="QCWBeS-BqgH0feekaY_x-17" value="" style="shape=partialRectangle;top=0;left=0;bottom=0;fillColor=none;align=left;verticalAlign=top;spacingLeft=4;spacingRight=4;overflow=hidden;rotatable=0;points=[];portConstraint=eastwest;part=1;fontSize=12;" vertex="1" connectable="0" parent="QCWBeS-BqgH0feekaY_x-16">
          <mxGeometry width="30" height="26" as="geometry"/>
        </mxCell>
        <mxCell id="QCWBeS-BqgH0feekaY_x-12" value="" style="shape=partialRectangle;top=0;left=0;right=0;bottom=0;align=left;verticalAlign=top;fillColor=none;spacingLeft=34;spacingRight=4;overflow=hidden;rotatable=0;points=[[0,0.5],[1,0.5]];portConstraint=eastwest;dropTarget=0;fontSize=12;" vertex="1" parent="QCWBeS-BqgH0feekaY_x-3">
          <mxGeometry y="302" width="160" as="geometry"/>
        </mxCell>
        <mxCell id="QCWBeS-BqgH0feekaY_x-13" value="" style="shape=partialRectangle;top=0;left=0;bottom=0;fillColor=none;align=left;verticalAlign=top;spacingLeft=4;spacingRight=4;overflow=hidden;rotatable=0;points=[];portConstraint=eastwest;part=1;fontSize=12;" vertex="1" connectable="0" parent="QCWBeS-BqgH0feekaY_x-12">
          <mxGeometry width="30" as="geometry"/>
        </mxCell>
        <mxCell id="QCWBeS-BqgH0feekaY_x-28" value="" style="edgeStyle=entityRelationEdgeStyle;fontSize=12;html=1;endArrow=ERmandOne;entryX=0;entryY=0.5;entryDx=0;entryDy=0;exitX=1.009;exitY=0.852;exitDx=0;exitDy=0;exitPerimeter=0;" edge="1" parent="1" source="O1Zh5Ntyxq8UXQbU3Ag8-92" target="QCWBeS-BqgH0feekaY_x-6">
          <mxGeometry width="100" height="100" relative="1" as="geometry">
            <mxPoint x="30" y="510" as="sourcePoint"/>
            <mxPoint x="130" y="410" as="targetPoint"/>
          </mxGeometry>
        </mxCell>
        <mxCell id="QCWBeS-BqgH0feekaY_x-30" value="" style="edgeStyle=entityRelationEdgeStyle;fontSize=12;html=1;endArrow=ERzeroToMany;endFill=1;startArrow=ERzeroToMany;entryX=-0.01;entryY=0.22;entryDx=0;entryDy=0;entryPerimeter=0;exitX=1.009;exitY=0.743;exitDx=0;exitDy=0;exitPerimeter=0;" edge="1" parent="1" source="O1Zh5Ntyxq8UXQbU3Ag8-92" target="O1Zh5Ntyxq8UXQbU3Ag8-48">
          <mxGeometry width="100" height="100" relative="1" as="geometry">
            <mxPoint x="-290" y="360" as="sourcePoint"/>
            <mxPoint x="-190" y="260" as="targetPoint"/>
          </mxGeometry>
        </mxCell>
        <mxCell id="QCWBeS-BqgH0feekaY_x-31" value="" style="edgeStyle=entityRelationEdgeStyle;fontSize=12;html=1;endArrow=ERzeroToMany;endFill=1;startArrow=ERzeroToMany;exitX=1;exitY=0.5;exitDx=0;exitDy=0;" edge="1" parent="1" source="O1Zh5Ntyxq8UXQbU3Ag8-92" target="O1Zh5Ntyxq8UXQbU3Ag8-37">
          <mxGeometry width="100" height="100" relative="1" as="geometry">
            <mxPoint x="-280" y="290" as="sourcePoint"/>
            <mxPoint x="-180" y="190" as="targetPoint"/>
          </mxGeometry>
        </mxCell>
        <mxCell id="QCWBeS-BqgH0feekaY_x-32" value="" style="edgeStyle=entityRelationEdgeStyle;fontSize=12;html=1;endArrow=ERmandOne;startArrow=ERmandOne;exitX=1;exitY=0.5;exitDx=0;exitDy=0;" edge="1" parent="1" source="O1Zh5Ntyxq8UXQbU3Ag8-28">
          <mxGeometry width="100" height="100" relative="1" as="geometry">
            <mxPoint x="20" y="-10.000000000000227" as="sourcePoint"/>
            <mxPoint x="120" y="210" as="targetPoint"/>
          </mxGeometry>
        </mxCell>
        <mxCell id="QCWBeS-BqgH0feekaY_x-33" value="" style="edgeStyle=entityRelationEdgeStyle;fontSize=12;html=1;endArrow=ERzeroToMany;endFill=1;startArrow=ERzeroToMany;exitX=1.009;exitY=0.198;exitDx=0;exitDy=0;exitPerimeter=0;" edge="1" parent="1" source="O1Zh5Ntyxq8UXQbU3Ag8-92" target="O1Zh5Ntyxq8UXQbU3Ag8-26">
          <mxGeometry width="100" height="100" relative="1" as="geometry">
            <mxPoint x="-370" y="260" as="sourcePoint"/>
            <mxPoint x="-200" y="20" as="targetPoint"/>
          </mxGeometry>
        </mxCell>
        <mxCell id="QCWBeS-BqgH0feekaY_x-34" value="" style="edgeStyle=entityRelationEdgeStyle;fontSize=12;html=1;endArrow=ERoneToMany;exitX=1;exitY=0.5;exitDx=0;exitDy=0;entryX=0.005;entryY=0.831;entryDx=0;entryDy=0;entryPerimeter=0;" edge="1" parent="1" source="O1Zh5Ntyxq8UXQbU3Ag8-48" target="QCWBeS-BqgH0feekaY_x-26">
          <mxGeometry width="100" height="100" relative="1" as="geometry">
            <mxPoint x="-230" y="680" as="sourcePoint"/>
            <mxPoint x="-130" y="580" as="targetPoint"/>
          </mxGeometry>
        </mxCell>
        <mxCell id="QCWBeS-BqgH0feekaY_x-35" value="" style="edgeStyle=entityRelationEdgeStyle;fontSize=12;html=1;endArrow=ERoneToMany;exitX=1;exitY=0.5;exitDx=0;exitDy=0;" edge="1" parent="1" source="O1Zh5Ntyxq8UXQbU3Ag8-37" target="QCWBeS-BqgH0feekaY_x-26">
          <mxGeometry width="100" height="100" relative="1" as="geometry">
            <mxPoint x="40" y="310" as="sourcePoint"/>
            <mxPoint x="140" y="640" as="targetPoint"/>
          </mxGeometry>
        </mxCell>
        <mxCell id="QCWBeS-BqgH0feekaY_x-36" value="" style="edgeStyle=entityRelationEdgeStyle;fontSize=12;html=1;endArrow=ERoneToMany;entryX=-0.002;entryY=0.204;entryDx=0;entryDy=0;exitX=1;exitY=0.5;exitDx=0;exitDy=0;entryPerimeter=0;" edge="1" parent="1" source="O1Zh5Ntyxq8UXQbU3Ag8-26" target="QCWBeS-BqgH0feekaY_x-26">
          <mxGeometry width="100" height="100" relative="1" as="geometry">
            <mxPoint x="40" y="120" as="sourcePoint"/>
            <mxPoint x="170" y="629" as="targetPoint"/>
          </mxGeometry>
        </mxCell>
      </root>
    </mxGraphModel>
  </diagram>
</mxfile>
